<?xml version="1.0" encoding="UTF-8" standalone="no" ?>
<!DOCTYPE svg PUBLIC "-//W3C//DTD SVG 1.1//EN" "http://www.w3.org/Graphics/SVG/1.1/DTD/svg11.dtd">
<svg xmlns="http://www.w3.org/2000/svg" xmlns:xlink="http://www.w3.org/1999/xlink" version="1.1" viewBox="0 0 1111 1111" width="1280" height="1280" xml:space="preserve">
    <circle cx="555.5" cy="555.5" r="555.5" fill="#88c5ca"/> <!-- Background circle -->

<g transform="matrix(0 0 0 0 0 0)" id="c04144ef-5302-4aef-9971-73a6fb4f56c4"  >
</g>
<g transform="matrix(1 0 0 1 540 540)" id="c3ad8c44-cebf-4b28-a1ea-26b977177fbe"  >
</g>
<g transform="matrix(0 0 0 0 0 0)"  >
<g style=""   >
</g>
</g>
<g transform="matrix(0 0 0 0 0 0)"  >
<g style=""   >
</g>
</g>
<g transform="matrix(0 0 0 0 0 0)"  >
<g style=""   >
</g>
</g>
<g transform="matrix(0.64 0 0 0.64 541.54 542.01)"  >
<g style="" vector-effect="non-scaling-stroke"   >
		<g transform="matrix(1 0 0 1 -90.21 0.03)"  >
<path style="stroke: none; stroke-width: 1; stroke-dasharray: none; stroke-linecap: butt; stroke-dashoffset: 0; stroke-linejoin: miter; stroke-miterlimit: 4; fill: rgb(251,251,251); fill-rule: evenodd; opacity: 1;" vector-effect="non-scaling-stroke"  transform=" translate(-2389.73, -1247.57)" d="M 2445.5 745.074 C 2443.3 745.532 2432.725 747.087 2422 748.529 C 2333.177 760.472 2268.211 787.241 2209.179 836.22 C 2196.791 846.499 2172.635 870.859 2163.783 882 C 2143.701 907.274 2135.056 926.085 2133.405 948.098 C 2131.751 970.149 2141.376 995.214 2156.808 1009.045 C 2184.796 1034.128 2238.532 1030.473 2269.994 1001.345 C 2278.221 993.729 2283.55 986.791 2299.07 963.5 C 2309.685 947.569 2314.441 941.445 2322.448 933.398 C 2352.66 903.036 2405.155 882.257 2463.75 877.466 C 2468.287 877.095 2472 876.462 2472 876.06 C 2472 875.657 2469.193 874.548 2465.763 873.594 C 2444.509 867.685 2426.946 850.013 2420.099 827.645 C 2416.991 817.494 2417.147 801.4 2420.457 790.552 C 2426.401 771.074 2441.29 754.896 2459.735 747.874 C 2463.165 746.568 2465.977 745.163 2465.985 744.75 C 2466.005 743.763 2450.62 744.007 2445.5 745.074 M 2462.5 1142.088 C 2343.497 1148.815 2257.034 1178.023 2190.012 1234.139 C 2166.586 1253.752 2143.182 1279.703 2128.351 1302.507 C 2107.94 1333.894 2097.171 1364.539 2092.514 1404.494 C 2090.482 1421.934 2090.425 1483.211 2092.425 1501 C 2096.213 1534.684 2102.376 1557.269 2114.951 1583.548 C 2133.005 1621.276 2159.911 1653.772 2196 1681.435 C 2241.361 1716.205 2310.943 1742.948 2374.211 1749.929 C 2388.888 1751.548 2436.222 1751.289 2450.583 1749.511 C 2494.752 1744.043 2545.618 1728.972 2585.5 1709.537 C 2617.82 1693.786 2638.708 1678.262 2670.989 1646 L 2688.5 1628.5 L 2688.239 1541.75 C 2688.096 1494.037 2687.611 1455 2687.163 1455 C 2686.714 1455 2684.619 1460.287 2682.506 1466.75 C 2677.777 1481.217 2670.333 1496.067 2662.797 1506.07 C 2642.5 1533.012 2591.697 1569.805 2552.598 1585.881 C 2532.491 1594.149 2514.81 1598.597 2490.361 1601.541 C 2472.242 1603.723 2428.069 1604.572 2409.5 1603.095 C 2361.44 1599.274 2327.135 1583.783 2296.872 1552.239 C 2265.198 1519.225 2250.407 1474.164 2254.94 1424.5 C 2258.856 1381.597 2271.137 1353.132 2297.028 1326.955 C 2330.029 1293.588 2376.433 1273.264 2440.5 1264.117 C 2488.679 1257.238 2514.153 1256 2607.481 1256 L 2688 1256 L 2688 1198.5 L 2688 1141 L 2582.25 1141.148 C 2524.088 1141.23 2470.2 1141.653 2462.5 1142.088" stroke-linecap="round" />
</g>
		<g transform="matrix(1 0 0 1 163.45 -0.69)"  >
<path style="stroke: none; stroke-width: 1; stroke-dasharray: none; stroke-linecap: butt; stroke-dashoffset: 0; stroke-linejoin: miter; stroke-miterlimit: 4; fill: rgb(12,36,60); fill-rule: evenodd; opacity: 1;" vector-effect="non-scaling-stroke"  transform=" translate(-2643.39, -1246.85)" d="M 2461 747.21 C 2440.697 755.499 2426.533 770.641 2420.457 790.552 C 2417.147 801.4 2416.991 817.494 2420.099 827.645 C 2425.353 844.807 2438.048 860.688 2452.5 868.176 C 2465.298 874.808 2471.921 876.159 2496 877.05 C 2536.713 878.558 2567.568 885.623 2598.944 900.624 C 2642.427 921.414 2671.091 953.735 2681.39 993.591 C 2682.23 996.841 2684.058 1006.249 2685.454 1014.498 L 2687.99 1029.495 L 2688.005 1330.824 C 2688.019 1628.933 2688.041 1632.309 2690.065 1646.723 C 2693.459 1670.902 2700.698 1695.272 2708.161 1707.646 C 2719.611 1726.63 2739.631 1741.793 2761 1747.667 C 2771.152 1750.457 2794.955 1750.226 2805.291 1747.237 C 2833.469 1739.087 2855.688 1717.896 2865.051 1690.244 C 2867.979 1681.593 2868.398 1678.983 2868.782 1666.971 C 2869.134 1655.962 2868.824 1651.491 2867.116 1642.971 C 2862.385 1619.368 2857.926 1581.671 2855.533 1545.038 C 2854.222 1524.971 2854 1485.039 2854 1269.032 C 2854 993.953 2854.217 1005.169 2848.397 979.066 C 2839.497 939.149 2818.565 896.477 2790.97 862 C 2780.476 848.888 2759.51 827.848 2747 817.873 C 2701.118 781.29 2651.575 760.052 2586.5 749.067 C 2560.571 744.69 2550.028 744.011 2509 744.08 L 2468.5 744.148 L 2461 747.21" stroke-linecap="round" />
</g>
</g>
</g>
</svg>