<svg xmlns="http://www.w3.org/2000/svg" width="200" height="200" viewBox="0 0 1045 1045" version="1.1">
    <path d="M 500.500 108.534 C 465.933 113.057, 437.966 124.176, 414.939 142.549 C 400.391 154.156, 389.148 167.186, 383.778 178.660 C 376.088 195.093, 382.280 214.383, 397.387 221.056 C 404.191 224.061, 412.123 224.596, 419.992 222.581 C 432.100 219.479, 438.639 214.060, 448.756 198.743 C 452.301 193.377, 457.809 186.626, 460.997 183.741 C 472.490 173.340, 493.558 164.812, 511.317 163.372 C 519.828 162.682, 526.050 161.190, 520.946 161.063 C 516.895 160.963, 508.274 156.156, 504.978 152.160 C 501.415 147.840, 498 139.268, 498 134.644 C 498 123.136, 506.840 111.327, 517.994 107.934 C 522.075 106.693, 511.902 107.041, 500.500 108.534 M 642.500 146 C 646.874 150.400, 650.678 154, 650.953 154 C 651.228 154, 647.874 150.400, 643.500 146 C 639.126 141.600, 635.322 138, 635.047 138 C 634.772 138, 638.126 141.600, 642.500 146 M 609 247.143 L 609 271.286 573.750 270.772 C 503.358 269.746, 474.740 273.209, 441 286.839 C 413.200 298.069, 385.483 322.298, 373.632 345.730 C 365.008 362.782, 363.500 370.857, 363.500 400 C 363.500 429.883, 365.197 438.675, 374.475 456.860 C 379.546 466.798, 384.758 473.752, 394.500 483.575 C 405.018 494.181, 415.442 501.475, 429.443 508.028 C 466.606 525.422, 503.209 528.016, 541.566 515.972 C 567.454 507.844, 580.499 500.487, 598.661 483.772 L 609.822 473.500 609.911 348.250 C 609.960 279.362, 609.775 223, 609.500 223 C 609.225 223, 609 233.864, 609 247.143 M 525 320.109 C 475.744 323.634, 444.660 341.162, 434.338 371.232 C 431.696 378.929, 431.501 380.571, 431.508 395 C 431.517 410.248, 431.571 410.636, 434.868 418.846 C 439.355 430.021, 445.193 438.290, 453.566 445.332 C 468.380 457.791, 481.136 461.532, 508.500 461.439 C 537.008 461.343, 551.337 457.589, 571.187 445.014 C 588.361 434.134, 597.899 425.069, 603.203 414.586 C 608.943 403.239, 608.977 402.907, 608.989 359.250 L 609 319 572.750 319.143 C 552.813 319.221, 531.325 319.656, 525 320.109 M 645.750 522.723 C 647.538 522.945, 650.462 522.945, 652.250 522.723 C 654.038 522.502, 652.575 522.320, 649 522.320 C 645.425 522.320, 643.962 522.502, 645.750 522.723 M 912.789 659.741 C 916.248 659.937, 921.648 659.936, 924.789 659.738 C 927.930 659.540, 925.100 659.380, 918.500 659.382 C 911.900 659.384, 909.330 659.546, 912.789 659.741 M 914.250 700.735 C 916.862 700.941, 921.138 700.941, 923.750 700.735 C 926.362 700.529, 924.225 700.360, 919 700.360 C 913.775 700.360, 911.638 700.529, 914.250 700.735 M 370.500 779.855 C 371.101 780.726, 371.709 796.708, 372.023 819.902 L 372.546 858.500 372.773 820.361 C 372.982 785.243, 372.861 782.070, 371.250 780.314 C 370.288 779.264, 369.950 779.058, 370.500 779.855 M 425.454 820 C 425.454 841.175, 425.587 849.837, 425.749 839.250 C 425.911 828.663, 425.911 811.337, 425.749 800.750 C 425.587 790.163, 425.454 798.825, 425.454 820 M 919.250 878.743 C 923.513 878.931, 930.487 878.931, 934.750 878.743 C 939.013 878.556, 935.525 878.402, 927 878.402 C 918.475 878.402, 914.987 878.556, 919.250 878.743 M 34.685 905.108 C 30.034 915.913, 23.065 931.873, 21.997 934.165 C 21.315 935.631, 19.866 937.063, 18.777 937.348 C 14.925 938.355, 18.200 940, 24.059 940 C 29.907 940, 32.237 938.398, 28 937.290 C 25.601 936.662, 25.568 936.278, 27.513 931.622 C 29.027 928, 29.028 928, 35.353 928 C 41.161 928, 41.774 928.208, 42.839 930.547 C 44.427 934.031, 44.295 936.673, 42.500 937.362 C 38.750 938.801, 41.478 940, 48.500 940 C 54.219 940, 56 939.671, 56 938.617 C 56 937.856, 55.115 937.002, 54.033 936.719 C 52.012 936.190, 51.305 934.895, 45.994 922 C 37.279 900.836, 36.820 900.150, 34.685 905.108 M 145.544 903.589 C 137.379 906.579, 133.644 912.358, 133.611 922.055 C 133.594 926.843, 134.130 929.538, 135.598 932.052 C 139.354 938.483, 147.096 941.955, 154.560 940.555 C 158.346 939.844, 166 933.709, 166 931.384 C 166 929.300, 165.112 929.666, 160.868 933.500 C 156.277 937.648, 151.564 938.130, 146.456 934.973 C 142.565 932.568, 141 928.652, 141 921.319 C 141 911.723, 144.988 906, 151.675 906 C 156.628 906, 159.812 907.938, 161.743 912.129 C 164.209 917.484, 165.565 916.397, 165.147 909.401 C 164.722 902.278, 164.437 901.710, 162.043 903.205 C 160.622 904.093, 159.237 904.088, 156.223 903.185 C 151.377 901.733, 150.526 901.765, 145.544 903.589 M 409 903.169 C 394.929 907.143, 391.564 928.464, 403.563 937.616 C 406.799 940.084, 408.246 940.500, 413.599 940.500 C 420.328 940.500, 423.446 938.962, 427.371 933.705 C 430.483 929.537, 428.483 929.331, 424.024 933.360 C 411.881 944.329, 398.008 929.476, 405.067 913.065 C 407.263 907.962, 410.021 906, 415 906 C 419.638 906, 422.669 907.940, 424.552 912.115 C 427.212 918.013, 428.381 916.979, 427.669 909.358 C 426.999 902.189, 426.393 900.745, 425 903.001 C 424.250 904.213, 423.378 904.248, 419.540 903.222 C 414.315 901.825, 413.769 901.822, 409 903.169 M 736.378 903.437 C 730.666 905.923, 728.309 912.208, 731.250 917.110 C 732.457 919.122, 742.202 926, 743.845 926 C 745.204 926, 749 930.535, 749 932.159 C 749 934.681, 745.572 937, 741.846 937 C 738.062 937, 735.309 934.677, 733.187 929.694 C 731.407 925.515, 730 927.369, 730 933.892 C 730 940.108, 730.611 941.568, 732.543 939.964 C 733.381 939.269, 735.206 939.330, 738.298 940.157 C 744.568 941.834, 750.372 940.078, 753.044 935.696 C 756.588 929.883, 755.120 924.682, 748.864 920.890 C 735.479 912.775, 735.856 913.092, 736.185 910.249 C 736.958 903.591, 748.251 905.492, 749.566 912.502 C 750.539 917.687, 752.448 916.237, 752.807 910.041 C 753.192 903.389, 752.533 901.313, 750.556 902.953 C 749.507 903.824, 748.139 903.855, 745.318 903.071 C 740.571 901.753, 740.213 901.768, 736.378 903.437 M 1003.500 903.492 C 995.554 906.282, 990.139 915.775, 991.462 924.596 C 992.144 929.143, 996.491 935.965, 1000.295 938.458 C 1007.141 942.943, 1018.162 940.587, 1023.584 933.479 C 1025.952 930.374, 1026.518 928.524, 1026.839 922.842 C 1027.070 918.752, 1026.726 914.754, 1025.991 912.977 C 1024.319 908.943, 1018.882 904.339, 1014.277 903.060 C 1009.488 901.730, 1008.394 901.774, 1003.500 903.492 M 75 904.291 C 75 905.158, 76.008 906.004, 77.250 906.180 C 79.453 906.493, 79.506 906.810, 79.777 921.265 L 80.054 936.029 77.527 936.990 C 72.708 938.822, 74.850 940, 83 940 C 89.272 940, 91 939.691, 91 938.570 C 91 937.783, 89.987 936.995, 88.750 936.820 C 86.706 936.529, 86.473 935.883, 86.204 929.750 C 85.803 920.600, 87.231 920.886, 94.942 931.500 L 101.118 940 106 940 C 110.981 940, 113.588 938.441, 110.313 937.421 C 106.615 936.268, 105.392 935.190, 100.689 928.938 C 97.482 924.674, 96.315 922.409, 97.189 922.146 C 97.910 921.928, 99.737 920.597, 101.250 919.188 C 104.976 915.716, 104.956 911.101, 101.195 906.892 C 98.418 903.784, 98.275 903.748, 86.695 903.237 C 76.515 902.788, 75 902.924, 75 904.291 M 189.732 903.601 C 188.656 904.677, 189.939 906, 192.059 906 C 193.896 906, 194 906.823, 194 921.430 C 194 936.503, 193.950 936.868, 191.828 937.180 C 190.634 937.356, 189.465 938.081, 189.231 938.792 C 188.901 939.794, 190.680 940.018, 197.153 939.792 C 201.856 939.627, 205.500 939.063, 205.500 938.500 C 205.500 937.950, 204.533 937.362, 203.352 937.194 C 200.871 936.840, 200.033 934.470, 200.014 927.750 L 200 923 207.500 923 L 215 923 215 930 C 215 936.333, 214.810 937, 213 937 C 211.889 937, 211 937.667, 211 938.500 C 211 939.708, 212.556 940, 219 940 C 227.134 940, 229.293 938.822, 224.500 937 L 222 936.050 222 921.500 L 222 906.950 224.500 906 C 229.560 904.076, 227.165 902.913, 218.750 903.210 C 213.924 903.379, 210.587 903.915, 210.710 904.500 C 210.826 905.050, 211.839 905.644, 212.960 905.820 C 214.769 906.103, 215 906.869, 215 912.570 L 215 919 207.500 919 L 200 919 200.014 914.750 C 200.033 908.691, 200.919 906.157, 203.142 905.806 C 204.207 905.638, 205.174 905.050, 205.290 904.500 C 205.526 903.374, 190.809 902.524, 189.732 903.601 M 250 904.430 C 250 905.217, 251.012 906.005, 252.250 906.180 C 254.469 906.496, 254.500 906.706, 254.500 921.500 C 254.500 936.294, 254.469 936.504, 252.250 936.820 C 251.012 936.995, 250 937.783, 250 938.570 C 250 939.692, 251.739 940, 258.083 940 C 264.103 940, 266.062 939.681, 265.755 938.750 C 265.529 938.063, 264.355 937.355, 263.146 937.177 C 260.979 936.859, 260.953 936.642, 261.224 921.677 C 261.495 906.795, 261.544 906.494, 263.750 906.180 C 264.988 906.005, 266 905.217, 266 904.430 C 266 903.309, 264.272 903, 258 903 C 251.728 903, 250 903.309, 250 904.430 M 288.667 903.667 C 287.653 904.681, 287.871 911.802, 288.936 912.460 C 289.451 912.779, 290.467 911.793, 291.193 910.270 C 292.234 908.087, 293.308 907.434, 296.257 907.190 L 300 906.879 300 921.870 C 300 936.655, 299.969 936.865, 297.750 937.180 C 296.512 937.356, 295.500 937.950, 295.500 938.500 C 295.500 939.062, 299.110 939.627, 303.750 939.790 C 312.165 940.087, 314.560 938.924, 309.500 937 L 307 936.050 307 921.525 L 307 907 310.429 907 C 313.986 907, 317 909.096, 317 911.571 C 317 912.357, 317.450 913, 318 913 C 318.550 913, 319 910.750, 319 908 L 319 903 304.167 903 C 296.008 903, 289.033 903.300, 288.667 903.667 M 341 904.403 C 341 905.205, 342.012 906.005, 343.250 906.180 C 345.456 906.494, 345.505 906.795, 345.776 921.677 C 346.047 936.642, 346.021 936.859, 343.854 937.177 C 342.645 937.355, 341.467 938.075, 341.236 938.778 C 340.904 939.784, 343.843 939.997, 355.029 939.778 L 369.243 939.500 371.013 935 C 371.986 932.525, 372.583 930.168, 372.339 929.762 C 372.096 929.356, 370.167 930.843, 368.053 933.065 C 364.315 936.995, 364.048 937.098, 358.354 936.803 L 352.500 936.500 352.205 929.196 L 351.910 921.892 357.197 922.196 C 361.887 922.466, 362.637 922.821, 363.843 925.348 C 364.705 927.153, 365.553 927.847, 366.156 927.244 C 367.542 925.858, 366.768 914.746, 365.250 914.246 C 364.533 914.009, 364 914.675, 364 915.810 C 364 918.230, 362.171 919, 356.418 919 L 352 919 352 913 L 352 907 358.981 907 C 365.593 907, 365.995 907.132, 366.589 909.500 C 366.934 910.875, 367.869 912, 368.666 912 C 369.752 912, 370.038 910.936, 369.807 907.750 L 369.500 903.500 355.250 903.223 C 343.306 902.990, 341 903.181, 341 904.403 M 452 907.974 C 452 913.612, 453.275 914.518, 454.850 910 C 455.780 907.332, 456.345 907, 459.948 907 L 464 907 464 922 L 464 937 461.500 937 C 459.944 937, 459 937.567, 459 938.500 C 459 939.708, 460.556 940, 467 940 C 473.272 940, 475 939.691, 475 938.570 C 475 937.783, 473.988 936.995, 472.750 936.820 C 470.547 936.507, 470.494 936.191, 470.223 921.691 L 469.946 906.882 474.215 907.191 C 477.778 907.449, 478.710 907.971, 479.844 910.348 C 481.629 914.089, 483.237 912.486, 482.818 907.382 L 482.500 903.500 467.250 903.224 L 452 902.948 452 907.974 M 503.694 903.639 C 502.651 904.682, 503.972 906, 506.059 906 C 507.827 906, 508.007 906.780, 508.073 914.750 C 508.191 928.945, 509.183 933.645, 512.828 937.290 C 515.718 940.179, 516.564 940.463, 522.343 940.481 C 534.302 940.517, 536.992 936.916, 537.014 920.849 C 537.030 908.659, 537.537 906.218, 540.142 905.806 C 541.207 905.638, 542.174 905.050, 542.290 904.500 C 542.409 903.933, 539.574 903.372, 535.750 903.204 C 530.200 902.961, 529 903.184, 529 904.454 C 529 905.304, 529.852 906, 530.893 906 C 533.515 906, 534.001 907.854, 533.994 917.832 C 533.985 932.346, 531.446 937, 523.535 937 C 516.454 937, 514.710 932.710, 515.198 916.500 C 515.485 906.997, 515.612 906.484, 517.750 906.180 C 518.987 906.005, 520 905.217, 520 904.430 C 520 903.312, 518.294 903, 512.167 903 C 507.858 903, 504.046 903.288, 503.694 903.639 M 565 904.358 C 565 905.333, 565.812 906, 567 906 C 568.914 906, 569 906.667, 569 921.500 C 569 936.333, 568.914 937, 567 937 C 565.889 937, 565 937.667, 565 938.500 C 565 939.710, 566.565 940, 573.083 940 C 579.103 940, 581.062 939.681, 580.755 938.750 C 580.529 938.063, 579.366 937.356, 578.172 937.180 C 576.182 936.888, 576 936.279, 576 929.930 C 576 926.119, 576.410 923, 576.910 923 C 577.411 923, 580.654 926.825, 584.116 931.500 L 590.411 940 595.789 940 C 599.582 940, 601.047 939.640, 600.759 938.778 C 600.535 938.105, 599.260 937.299, 597.926 936.986 C 596.455 936.641, 593.475 933.707, 590.356 929.530 L 585.211 922.643 588.356 921.072 C 594.067 918.217, 594.280 907.826, 588.688 904.833 C 587.568 904.234, 581.780 903.512, 575.826 903.230 C 566.246 902.776, 565 902.906, 565 904.358 M 622 904.500 C 622 905.333, 622.889 906, 624 906 C 625.914 906, 626 906.667, 626 921.500 C 626 936.333, 625.914 937, 624 937 C 622.889 937, 622 937.667, 622 938.500 C 622 939.761, 624.207 940, 635.864 940 L 649.728 940 651.364 935.717 C 653.362 930.484, 653.380 930, 651.567 930 C 650.779 930, 649.848 930.905, 649.497 932.011 C 648.532 935.051, 643.583 937.150, 638.198 936.803 L 633.500 936.500 633.206 929.250 L 632.912 922 637.022 922 C 641.769 922, 645 923.432, 645 925.535 C 645 926.341, 645.450 927, 646 927 C 646.564 927, 647 924.167, 647 920.500 C 647 916.833, 646.564 914, 646 914 C 645.450 914, 645 914.852, 645 915.893 C 645 918.231, 643.124 919, 637.418 919 L 633 919 633 913 L 633 907 639.521 907 C 645.507 907, 646.136 907.205, 647.182 909.500 C 648.907 913.285, 650 912.509, 650 907.500 L 650 903 636 903 C 624.222 903, 622 903.238, 622 904.500 M 779 908 C 779 913.660, 780.025 914.421, 781.694 910 C 782.698 907.341, 783.290 907, 786.913 907 L 791 907 791 921.930 C 791 936.490, 790.946 936.869, 788.828 937.180 C 787.634 937.356, 786.471 938.063, 786.245 938.750 C 785.938 939.681, 787.897 940, 793.917 940 C 800.261 940, 802 939.692, 802 938.570 C 802 937.783, 800.987 936.995, 799.750 936.820 C 797.547 936.507, 797.494 936.189, 797.223 921.750 L 796.947 907 801.060 907 C 804.712 907, 805.301 907.336, 806.306 910 C 807.975 914.421, 809 913.660, 809 908 L 809 903 794 903 L 779 903 779 908 M 830.694 903.639 C 829.678 904.655, 830.951 906, 832.928 906 C 835.236 906, 835.974 910.166, 835.989 923.265 C 836 932.972, 836.020 933.051, 839.404 936.744 C 842.651 940.287, 843.106 940.460, 849.247 940.479 C 861.424 940.518, 863.994 937.189, 864.014 921.346 C 864.030 908.651, 864.519 906.221, 867.142 905.806 C 868.207 905.638, 869.174 905.050, 869.290 904.500 C 869.409 903.933, 866.574 903.372, 862.750 903.204 C 857.200 902.961, 856 903.184, 856 904.454 C 856 905.304, 856.852 906, 857.893 906 C 858.934 906, 860.059 906.712, 860.393 907.582 C 861.386 910.170, 861.071 926.203, 859.948 930.248 C 858.218 936.476, 849.881 939.152, 844.861 935.090 C 842.593 933.255, 842.500 932.653, 842.500 919.840 C 842.500 906.767, 842.545 906.494, 844.750 906.180 C 845.987 906.005, 847 905.217, 847 904.430 C 847 903.312, 845.294 903, 839.167 903 C 834.858 903, 831.046 903.288, 830.694 903.639 M 891.694 903.639 C 890.651 904.682, 891.972 906, 894.059 906 C 895.896 906, 896 906.823, 896 921.430 C 896 936.190, 895.911 936.875, 893.960 937.180 C 892.839 937.356, 891.826 937.950, 891.710 938.500 C 891.583 939.105, 895.793 939.613, 902.362 939.785 C 911.776 940.032, 913.812 939.785, 917.639 937.933 C 923.856 934.923, 927.243 930.121, 927.788 923.540 C 928.354 916.712, 926.820 912.187, 922.527 908.026 C 920.080 905.655, 917.713 904.470, 914.296 903.908 C 908.443 902.945, 892.577 902.757, 891.694 903.639 M 952 904.430 C 952 905.217, 953.013 906.005, 954.250 906.180 C 956.469 906.496, 956.500 906.706, 956.500 921.500 C 956.500 936.294, 956.469 936.504, 954.250 936.820 C 953.013 936.995, 952 937.783, 952 938.570 C 952 939.691, 953.728 940, 960 940 C 966.272 940, 968 939.691, 968 938.570 C 968 937.783, 966.987 936.995, 965.750 936.820 C 963.531 936.504, 963.500 936.294, 963.500 921.500 C 963.500 906.706, 963.531 906.496, 965.750 906.180 C 966.987 906.005, 968 905.217, 968 904.430 C 968 903.309, 966.272 903, 960 903 C 953.728 903, 952 903.309, 952 904.430 M 1004.117 907.631 C 1000.880 909.898, 999 914.958, 999 921.403 C 999 931.521, 1002.684 937, 1009.487 937 C 1017.271 937, 1021.161 929.075, 1019.457 916.689 C 1018.217 907.669, 1010.536 903.134, 1004.117 907.631 M 86 913.500 L 86 920 89.045 920 C 93.384 920, 97.411 915.810, 96.541 912.200 C 95.688 908.659, 93.380 907, 89.309 907 L 86 907 86 913.500 M 576 913.500 C 576 919.798, 576.079 920, 578.545 920 C 581.494 920, 586 915.931, 586 913.268 C 586 909.765, 583.108 907, 579.443 907 L 576 907 576 913.500 M 903 921.357 L 903 935.962 905.428 936.571 C 910.197 937.768, 916.915 934.035, 918.985 929.036 C 919.733 927.231, 920.067 923.395, 919.818 919.484 C 919.263 910.772, 916.612 907.881, 908.565 907.214 L 903 906.752 903 921.357 M 33.154 918.405 C 31.956 921.102, 31.159 923.493, 31.384 923.717 C 31.608 923.942, 33.629 923.985, 35.874 923.813 L 39.956 923.500 37.644 918.500 L 35.332 913.500 33.154 918.405"
          stroke="none" fill="#fbfbfb" fill-rule="evenodd"/>
    <path d="M 517.994 107.934 C 506.840 111.327, 498 123.136, 498 134.644 C 498 139.278, 501.418 147.844, 505 152.186 C 506.672 154.214, 510.497 157.074, 513.499 158.543 C 518.233 160.859, 520.799 161.321, 532.861 162.026 C 550.068 163.032, 560.121 165.536, 573.888 172.246 C 591.553 180.855, 602.468 193.525, 607.705 211.500 C 609.317 217.034, 609.495 227.785, 609.992 350 L 610.531 482.500 612.755 490.370 C 617.028 505.490, 623.222 513.870, 633.780 518.819 C 638.735 521.141, 640.771 521.499, 649 521.489 C 657.494 521.479, 659.112 521.169, 664.278 518.563 C 671.184 515.079, 678.278 507.805, 681.155 501.259 C 684.040 494.692, 684.572 484.427, 682.568 474 C 678.544 453.065, 678.026 436.114, 678.013 324.926 C 678.002 231.400, 677.802 217.198, 676.384 208.926 C 669.903 171.111, 641.429 136.031, 604.182 119.972 C 585.040 111.720, 559.442 106.953, 535 107.091 C 527.025 107.135, 519.372 107.515, 517.994 107.934 M 899.500 660.614 C 847.931 668.131, 819.509 694.948, 822.318 733.437 C 824.023 756.801, 836.853 774.778, 858.011 783.449 C 869.757 788.262, 880.666 790.048, 916.500 793.023 C 960.698 796.692, 968.186 798.192, 975.238 804.789 C 976.743 806.198, 978.256 808.846, 978.599 810.675 C 980.821 822.519, 971.687 830.931, 951.500 835.636 C 940.490 838.201, 910.716 838.207, 897 835.645 C 883.163 833.061, 870.646 829.315, 861.182 824.925 C 851.648 820.502, 847 816.215, 847 811.846 C 847 809.474, 846.371 808.639, 843.755 807.539 C 840.026 805.971, 839.974 806.017, 837.067 813.500 C 835.998 816.250, 831.496 827.034, 827.062 837.465 C 822.628 847.895, 819 857.160, 819 858.054 C 819 858.948, 820.163 860.209, 821.585 860.857 C 823.844 861.886, 824.548 861.717, 827.162 859.517 C 828.807 858.133, 830.606 857, 831.159 857 C 831.712 857, 835.270 858.363, 839.065 860.029 C 857.018 867.908, 882.739 874.794, 902.211 876.933 C 914.492 878.282, 938.773 878.295, 950.500 876.957 C 1001.017 871.197, 1032.059 843.368, 1029.651 806 C 1028.667 790.723, 1023.547 779.457, 1012.560 768.388 C 998.426 754.150, 978.910 747.632, 941 744.490 C 881.180 739.531, 871.584 737.397, 869.129 728.506 C 867.198 721.510, 870.413 714.597, 877.765 709.934 C 896.605 697.986, 931.452 696.979, 963.442 707.458 C 981.313 713.312, 992.267 720.573, 993.550 727.417 C 994.043 730.045, 995.036 731.485, 997.088 732.546 C 999.765 733.930, 1000.029 733.881, 1001.378 731.760 C 1003.378 728.615, 1026.001 684.795, 1025.994 684.081 C 1025.990 683.761, 1024.708 682.772, 1023.144 681.883 C 1020.488 680.372, 1020.141 680.387, 1017.900 682.110 C 1014.169 684.979, 1009.885 684.376, 998.770 679.421 C 966.103 664.857, 950.352 660.976, 922 660.503 C 911.275 660.324, 901.150 660.374, 899.500 660.614 M 106.678 664.656 C 106.305 665.028, 106.001 666.721, 106.003 668.417 C 106.005 670.956, 106.667 671.853, 109.753 673.500 C 115.035 676.319, 117.222 681.122, 115.900 687 C 114.681 692.418, 115.969 689.722, 76 770.500 C 58.311 806.250, 41.365 840.512, 38.342 846.639 C 31.999 859.494, 28.442 863.622, 22.287 865.268 C 18.068 866.397, 17.917 866.571, 18.203 869.970 L 18.500 873.500 57.500 873.500 L 96.500 873.500 96.800 869.923 C 97.084 866.533, 96.892 866.284, 93.104 865.149 C 87.528 863.479, 84.680 859.615, 85.254 854.500 C 85.500 852.300, 88.687 844.200, 92.335 836.500 L 98.969 822.500 145.774 822.240 L 192.579 821.981 199.721 835.240 C 203.648 842.533, 207.161 850.152, 207.528 852.172 C 208.649 858.358, 207.324 861.794, 202.955 864.023 C 200.824 865.110, 198.360 866, 197.479 866 C 196.242 866, 195.950 866.850, 196.190 869.750 L 196.500 873.500 239.500 873.500 L 282.500 873.500 282.795 870 C 283.080 866.628, 282.909 866.436, 278.123 864.736 C 270.808 862.140, 267.948 858.165, 253.488 830.500 C 246.370 816.884, 229.903 785.730, 217.015 761.500 C 214.968 757.650, 210.230 748.650, 206.487 741.500 C 202.745 734.350, 195.657 720.885, 190.736 711.578 C 180.726 692.644, 179 688.434, 179 682.951 C 179 680.061, 179.720 678.434, 182.014 676.140 C 183.672 674.482, 185.947 672.834, 187.069 672.478 C 188.719 671.954, 189.052 671.127, 188.805 668.165 L 188.500 664.500 147.928 664.239 C 125.613 664.095, 107.050 664.283, 106.678 664.656 M 280.676 664.657 C 280.304 665.029, 280 666.751, 280 668.484 C 280 671.441, 280.352 671.746, 285.726 673.440 C 290.325 674.890, 292.745 676.548, 298.027 681.872 C 305.027 688.927, 305.682 689.793, 346.505 746 L 373.016 782.500 372.758 821.346 L 372.500 860.191 369.520 862.567 C 367.881 863.873, 365.269 865.221, 363.715 865.563 C 361.165 866.123, 360.920 866.539, 361.195 869.842 L 361.500 873.500 399 873.500 L 436.500 873.500 436.808 870.326 C 437.089 867.425, 436.701 866.945, 432.308 864.756 C 429.663 863.439, 426.944 861.267, 426.265 859.931 C 425.350 858.131, 425.026 847.740, 425.015 819.913 L 425 782.327 448.512 749.913 C 500.014 678.913, 501.841 676.728, 512.551 673.352 C 518.017 671.629, 518.093 671.553, 517.799 668.052 L 517.500 664.500 472 664.500 L 426.500 664.500 426.203 668.032 C 425.926 671.314, 426.174 671.659, 429.703 672.902 C 440.540 676.719, 440.568 682.216, 429.830 697.438 C 428.253 699.672, 425.406 703.750, 423.501 706.500 C 410.270 725.605, 402.248 736.489, 401.446 736.426 C 400.501 736.350, 397.488 732.334, 378.620 706 C 367.354 690.275, 364 684.652, 364 681.487 C 364 678.161, 366.698 675.281, 371.549 673.428 C 375.897 671.768, 376.089 671.527, 375.801 668.095 L 375.500 664.500 328.426 664.240 C 302.536 664.097, 281.048 664.285, 280.676 664.657 M 604.211 665.189 C 601.708 667.692, 602.802 671.389, 606.672 673.500 C 608.688 674.600, 611.254 676.743, 612.373 678.262 C 616.455 683.801, 618.010 680.291, 555.711 806.113 C 536.793 844.318, 528.362 860.357, 526.371 861.923 C 524.834 863.132, 521.626 864.643, 519.241 865.281 C 515.072 866.395, 514.917 866.576, 515.203 869.970 L 515.500 873.500 554.500 873.500 L 593.500 873.500 593.800 869.923 C 594.083 866.548, 593.882 866.281, 590.213 865.182 C 580.304 862.213, 580.166 856.988, 589.465 836.750 L 596.242 822 643.054 822 L 689.866 822 696.183 833.740 C 703.889 848.061, 704.827 850.398, 704.924 855.527 C 705.022 860.740, 702.902 863.650, 697.914 865.144 C 694.106 866.285, 693.915 866.530, 694.200 869.923 L 694.500 873.500 737 873.500 L 779.500 873.500 779.805 869.842 C 780.081 866.534, 779.837 866.123, 777.265 865.558 C 772.337 864.476, 768.246 861.288, 764.745 855.805 C 761.641 850.943, 758.691 845.524, 744.983 819.500 C 735.144 800.822, 720.571 773.242, 716.979 766.500 C 714.927 762.650, 710.657 754.550, 707.490 748.500 C 704.323 742.450, 700.505 735.250, 699.006 732.500 C 697.507 729.750, 691.926 719.100, 686.603 708.833 C 675.176 686.793, 674.072 682.445, 678.547 677.126 C 680.074 675.312, 682.402 673.417, 683.722 672.916 C 685.757 672.142, 686.074 671.435, 685.810 668.252 L 685.500 664.500 645.461 664.239 C 615.154 664.041, 605.128 664.272, 604.211 665.189 M 129.998 758.729 C 122.101 775.103, 115.469 788.837, 115.261 789.250 C 115.053 789.663, 128.664 790, 145.508 790 L 176.134 790 161 760.250 C 152.677 743.888, 145.527 730.153, 145.112 729.729 C 144.697 729.304, 137.896 742.354, 129.998 758.729 M 639.191 733.750 C 638.060 736.362, 631.543 749.975, 624.708 764 L 612.282 789.500 642.293 789.765 C 658.799 789.911, 672.476 789.858, 672.686 789.647 C 673.203 789.130, 642.667 729.049, 641.873 729.022 C 641.528 729.010, 640.321 731.138, 639.191 733.750"
          stroke="none" fill="#13253d" fill-rule="evenodd"/>
</svg>