<?xml version="1.0" encoding="UTF-8" standalone="no" ?>
<!DOCTYPE svg PUBLIC "-//W3C//DTD SVG 1.1//EN" "http://www.w3.org/Graphics/SVG/1.1/DTD/svg11.dtd">
<svg xmlns="http://www.w3.org/2000/svg" xmlns:xlink="http://www.w3.org/1999/xlink" version="1.1" width="1200" height="900" viewBox="-22.5 33.75 1200 900" xml:space="preserve">
<desc>Created with Fabric.js 5.2.4</desc>
<defs>
</defs>
<g transform="matrix(1 0 0 1 600 450)" id="118aeeba-35e0-4d62-b2aa-266bb53ad4e2"  >
<rect style="stroke: none; stroke-width: 1; stroke-dasharray: none; stroke-linecap: butt; stroke-dashoffset: 0; stroke-linejoin: miter; stroke-miterlimit: 4; fill: rgb(255,255,255); fill-rule: nonzero; opacity: 1; visibility: hidden;" vector-effect="non-scaling-stroke"  x="-600" y="-450" rx="0" ry="0" width="1200" height="900" />
</g>
<g transform="matrix(Infinity NaN NaN Infinity 0 0)" id="b1927c0b-56ba-495f-ba0e-4a234c168cd2"  >
</g>
<g transform="matrix(0.85 0 0 0.85 579.25 498.59)"  >
<g style="" vector-effect="non-scaling-stroke"   >
		<g transform="matrix(0.63 0 0 0.63 0.31 -116.56)"  >
<path style="stroke: none; stroke-width: 1; stroke-dasharray: none; stroke-linecap: butt; stroke-dashoffset: 0; stroke-linejoin: miter; stroke-miterlimit: 4; fill: rgb(19,37,59); fill-rule: nonzero; opacity: 1;" vector-effect="non-scaling-stroke"  transform=" translate(-62, -226)" d="M 0 0 L 12 0 L 32 3 L 50 8 L 70 17 L 81 24 L 94 34 L 105 44 L 114 55 L 122 66 L 133 87 L 140 108 L 143 125 L 144 144 L 144 314 L 146 330 L 151 346 L 159 362 L 170 376 L 181 386 L 192 393 L 207 400 L 221 404 L 239 406 L 247 409 L 255 416 L 258 423 L 259 430 L 256 440 L 249 448 L 241 452 L 227 452 L 208 449 L 191 444 L 173 436 L 160 428 L 147 418 L 136 408 L 127 397 L 121 389 L 116 394 L 109 403 L 99 414 L 88 423 L 78 430 L 62 439 L 44 446 L 22 451 L 13 452 L -4 452 L -24 449 L -41 444 L -59 436 L -75 426 L -86 417 L -97 407 L -108 393 L -117 379 L -126 360 L -132 339 L -134 326 L -135 312 L -133 293 L -128 272 L -120 253 L -111 237 L -100 223 L -84 207 L -69 196 L -48 185 L -27 178 L -11 175 L 8 174 L 16 177 L 22 182 L 26 189 L 27 193 L 27 201 L 24 209 L 19 215 L 12 219 L -3 221 L -19 224 L -32 229 L -47 237 L -60 248 L -69 258 L -77 271 L -82 282 L -86 295 L -88 308 L -88 318 L -85 335 L -80 349 L -72 364 L -63 375 L -54 384 L -39 394 L -23 401 L -5 405 L 14 405 L 32 401 L 48 394 L 60 386 L 70 377 L 78 368 L 85 357 L 92 342 L 97 323 L 97 135 L 94 117 L 88 101 L 82 90 L 72 77 L 65 70 L 54 62 L 37 53 L 24 49 L 12 47 L -3 46 L -4 47 L -19 50 L -35 56 L -48 64 L -58 72 L -65 79 L -75 93 L -82 108 L -86 121 L -89 143 L -93 151 L -100 157 L -108 160 L -118 159 L -126 155 L -132 148 L -134 143 L -134 126 L -131 109 L -126 93 L -119 77 L -111 63 L -100 49 L -93 41 L -85 34 L -72 24 L -57 15 L -40 8 L -23 3 L -12 1 L -3 1 z M -7 2 M -9 3 M -10 4 M -12 5 L -12 8 L -10 5 z M -14 8 M -15 9 M -16 10 L -15 12 z M -17 12 L -16 14 z M -18 14 L -17 16 z M -19 17 L -19 29 L -18 29 L -18 17 z M -18 30 L -17 32 z M -17 32 L -16 34 z M -16 34 L -15 36 z M -15 36 M -14 37 L -13 40 L -13 37 z M -12 40 M -10 41 M -9 42 M -8 43 M -6 44 M 98 325 L 98 331 L 99 331 L 99 325 z M 99 332 L 99 337 L 100 337 L 100 332 z M 100 338 L 101 341 z M 101 343 L 102 346 z M 102 346 L 103 349 z M 103 350 L 104 353 z M 104 353 L 105 356 z M 105 356 L 106 359 z M 106 359 L 107 361 z M 107 362 L 108 364 z M 108 364 L 109 366 z M 109 366 L 110 368 z M 110 369 L 111 371 z M 111 371 L 112 373 z M 112 373 L 113 375 z M 113 375 L 114 377 z M 114 377 L 115 379 z M 115 379 M 116 380 L 117 382 z M 117 382 L 118 384 z M 118 384 M 119 385 L 120 387 z" stroke-linecap="round" />
</g>
		<g transform="matrix(0.63 0 0 0.63 -43.13 -62.19)"  >
<path style="stroke: none; stroke-width: 1; stroke-dasharray: none; stroke-linecap: butt; stroke-dashoffset: 0; stroke-linejoin: miter; stroke-miterlimit: 4; fill: rgb(255,255,255); fill-rule: nonzero; opacity: 1;" vector-effect="non-scaling-stroke"  transform=" translate(7.5, -139)" d="M 0 0 L 8 0 L 16 3 L 22 8 L 26 15 L 27 19 L 27 27 L 24 35 L 19 41 L 12 45 L -3 47 L -19 50 L -32 55 L -47 63 L -60 74 L -69 84 L -77 97 L -82 108 L -86 121 L -88 134 L -88 144 L -85 161 L -80 175 L -72 190 L -63 201 L -54 210 L -39 220 L -23 227 L -5 231 L 14 231 L 32 227 L 48 220 L 60 212 L 70 203 L 78 194 L 85 183 L 92 168 L 97 149 L 99 151 L 100 163 L 102 169 L 104 179 L 112 199 L 120 213 L 118 218 L 109 229 L 99 240 L 88 249 L 78 256 L 62 265 L 44 272 L 22 277 L 13 278 L -4 278 L -24 275 L -41 270 L -59 262 L -75 252 L -86 243 L -97 233 L -108 219 L -117 205 L -126 186 L -132 165 L -134 152 L -135 138 L -133 119 L -128 98 L -120 79 L -111 63 L -100 49 L -84 33 L -69 22 L -48 11 L -27 4 L -11 1 z" stroke-linecap="round" />
</g>
		<g transform="matrix(0.63 0 0 0.63 227.5 145.31)"  >
<path style="stroke: none; stroke-width: 1; stroke-dasharray: none; stroke-linecap: butt; stroke-dashoffset: 0; stroke-linejoin: miter; stroke-miterlimit: 4; fill: rgb(19,37,59); fill-rule: nonzero; opacity: 1;" vector-effect="non-scaling-stroke"  transform=" translate(-22.5, -99)" d="M 0 0 L 35 0 L 52 3 L 68 8 L 88 16 L 100 21 L 107 20 L 110 18 L 115 21 L 113 27 L 98 56 L 93 65 L 90 67 L 86 65 L 83 57 L 76 51 L 63 45 L 46 40 L 25 37 L 10 37 L -7 40 L -19 45 L -25 50 L -27 54 L -27 63 L -22 68 L -11 71 L 13 74 L 50 77 L 75 82 L 88 87 L 98 93 L 105 99 L 112 109 L 117 121 L 118 125 L 118 146 L 114 159 L 107 170 L 100 177 L 86 186 L 72 192 L 56 196 L 41 198 L 8 198 L -13 195 L -30 191 L -48 185 L -60 180 L -65 181 L -67 183 L -72 182 L -73 177 L -55 134 L -52 133 L -48 135 L -45 143 L -36 149 L -19 155 L -1 159 L 17 161 L 31 161 L 47 159 L 62 154 L 68 150 L 71 145 L 71 135 L 67 130 L 57 126 L 37 123 L -9 119 L -31 115 L -43 110 L -52 104 L -57 99 L -62 93 L -67 83 L -70 72 L -70 53 L -67 41 L -61 30 L -53 21 L -43 14 L -29 7 L -12 2 z" stroke-linecap="round" />
</g>
		<g transform="matrix(0.63 0 0 0.63 70.63 145.31)"  >
<path style="stroke: none; stroke-width: 1; stroke-dasharray: none; stroke-linecap: butt; stroke-dashoffset: 0; stroke-linejoin: miter; stroke-miterlimit: 4; fill: rgb(19,37,59); fill-rule: nonzero; opacity: 1;" vector-effect="non-scaling-stroke"  transform=" translate(-40.5, -95)" d="M 0 0 L 75 0 L 75 7 L 69 11 L 67 14 L 67 21 L 72 33 L 87 61 L 101 88 L 113 110 L 129 141 L 141 163 L 149 177 L 155 181 L 161 183 L 161 189 L 160 190 L 82 190 L 82 183 L 91 180 L 92 172 L 88 161 L 79 145 L 79 143 L -7 143 L -10 152 L -18 169 L -18 178 L -14 181 L -8 184 L -9 190 L -80 190 L -80 183 L -70 179 L -62 165 L -46 133 L -35 110 L -3 46 L 7 25 L 8 21 L 8 13 L 7 10 L 2 8 L 0 7 z M 34 59 L 8 112 L 8 114 L 63 114 L 61 108 L 46 78 L 36 59 z" stroke-linecap="round" />
</g>
		<g transform="matrix(0.63 0 0 0.63 -211.88 145.31)"  >
<path style="stroke: none; stroke-width: 1; stroke-dasharray: none; stroke-linecap: butt; stroke-dashoffset: 0; stroke-linejoin: miter; stroke-miterlimit: 4; fill: rgb(19,37,59); fill-rule: nonzero; opacity: 1;" vector-effect="non-scaling-stroke"  transform=" translate(-40.5, -95)" d="M 0 0 L 75 0 L 75 7 L 70 10 L 68 10 L 67 14 L 67 21 L 72 33 L 84 56 L 96 78 L 112 109 L 124 131 L 140 162 L 149 177 L 155 181 L 161 183 L 161 189 L 160 190 L 82 190 L 82 183 L 91 180 L 92 172 L 88 162 L 79 145 L 79 143 L -7 143 L -9 149 L -18 169 L -18 178 L -12 182 L -9 183 L -9 190 L -80 190 L -80 183 L -71 179 L -65 171 L -51 143 L -40 120 L -10 60 L 1 37 L 7 24 L 8 21 L 8 13 L 7 10 L 2 8 L 0 7 z M 34 59 L 21 85 L 10 108 L 8 114 L 63 114 L 61 108 L 37 61 L 36 59 z" stroke-linecap="round" />
</g>
		<g transform="matrix(0.63 0 0 0.63 -70.94 145.31)"  >
<path style="stroke: none; stroke-width: 1; stroke-dasharray: none; stroke-linecap: butt; stroke-dashoffset: 0; stroke-linejoin: miter; stroke-miterlimit: 4; fill: rgb(20,38,59); fill-rule: nonzero; opacity: 1;" vector-effect="non-scaling-stroke"  transform=" translate(-108, -95)" d="M 0 0 L 87 0 L 87 7 L 80 10 L 77 14 L 78 20 L 86 32 L 99 50 L 110 65 L 117 56 L 138 26 L 143 16 L 141 11 L 133 7 L 133 0 L 215 0 L 216 1 L 216 6 L 202 13 L 193 23 L 180 41 L 166 60 L 140 96 L 133 106 L 133 177 L 137 181 L 142 183 L 142 190 L 74 190 L 73 189 L 73 184 L 82 179 L 83 176 L 83 106 L 70 88 L 56 69 L 30 33 L 20 20 L 12 12 L 4 8 L 0 7 z" stroke-linecap="round" />
</g>
		<g transform="matrix(0.63 0 0 0.63 -81.25 -207.5)"  >
<path style="stroke: none; stroke-width: 1; stroke-dasharray: none; stroke-linecap: butt; stroke-dashoffset: 0; stroke-linejoin: miter; stroke-miterlimit: 4; fill: rgb(255,255,255); fill-rule: nonzero; opacity: 1;" vector-effect="non-scaling-stroke"  transform=" translate(56.5, -79.5)" d="M 0 0 L 6 0 L 4 3 L 0 5 L -5 13 L -6 16 L -6 28 L -1 38 L 6 43 L 9 45 L 8 46 L -7 49 L -23 55 L -36 63 L -46 71 L -53 78 L -63 92 L -70 107 L -74 120 L -77 142 L -81 150 L -88 156 L -96 159 L -106 158 L -114 154 L -120 147 L -122 142 L -122 125 L -119 108 L -114 92 L -107 76 L -99 62 L -88 48 L -81 40 L -73 33 L -60 23 L -45 14 L -28 7 L -11 2 z" stroke-linecap="round" />
</g>
		<g transform="matrix(0.63 0 0 0.63 214.06 246.88)"  >
<path style="stroke: none; stroke-width: 1; stroke-dasharray: none; stroke-linecap: butt; stroke-dashoffset: 0; stroke-linejoin: miter; stroke-miterlimit: 4; fill: rgb(255,255,255); fill-rule: nonzero; opacity: 1;" vector-effect="non-scaling-stroke"  transform=" translate(-17, -16.5)" d="M 0 0 L 21 0 L 28 3 L 33 9 L 34 13 L 34 20 L 31 27 L 25 32 L 22 33 L 0 33 L 4 30 L 4 3 z M 12 2 L 10 3 L 10 31 L 19 31 L 25 27 L 28 20 L 28 13 L 25 7 L 21 3 z" stroke-linecap="round" />
</g>
		<g transform="matrix(0.63 0 0 0.63 -175.63 246.88)"  >
<path style="stroke: none; stroke-width: 1; stroke-dasharray: none; stroke-linecap: butt; stroke-dashoffset: 0; stroke-linejoin: miter; stroke-miterlimit: 4; fill: rgb(255,255,255); fill-rule: nonzero; opacity: 1;" vector-effect="non-scaling-stroke"  transform=" translate(-17.5, -16.5)" d="M 0 0 L 15 0 L 12 2 L 10 2 L 10 15 L 25 15 L 24 3 L 20 0 L 35 0 L 32 2 L 30 2 L 31 31 L 35 33 L 20 33 L 24 30 L 24 18 L 11 18 L 11 31 L 15 33 L 0 33 L 4 30 L 4 3 z" stroke-linecap="round" />
</g>
		<g transform="matrix(0.63 0 0 0.63 -243.13 246.88)"  >
<path style="stroke: none; stroke-width: 1; stroke-dasharray: none; stroke-linecap: butt; stroke-dashoffset: 0; stroke-linejoin: miter; stroke-miterlimit: 4; fill: rgb(255,255,255); fill-rule: nonzero; opacity: 1;" vector-effect="non-scaling-stroke"  transform=" translate(-16.5, -16.5)" d="M 0 0 L 20 0 L 25 3 L 26 5 L 26 13 L 21 17 L 19 17 L 27 28 L 33 32 L 33 33 L 24 33 L 14 20 L 14 18 L 10 18 L 11 31 L 15 33 L 0 33 L 4 31 L 4 3 z M 11 2 L 10 3 L 10 16 L 17 15 L 20 12 L 20 5 L 16 2 z" stroke-linecap="round" />
</g>
		<g transform="matrix(0.63 0 0 0.63 43.13 246.88)"  >
<path style="stroke: none; stroke-width: 1; stroke-dasharray: none; stroke-linecap: butt; stroke-dashoffset: 0; stroke-linejoin: miter; stroke-miterlimit: 4; fill: rgb(255,255,255); fill-rule: nonzero; opacity: 1;" vector-effect="non-scaling-stroke"  transform=" translate(-16.5, -16.5)" d="M 0 0 L 19 0 L 24 3 L 26 6 L 26 12 L 22 16 L 19 18 L 28 30 L 33 32 L 33 33 L 23 33 L 13 19 L 10 18 L 11 31 L 14 33 L 0 33 L 4 29 L 4 4 L 3 2 z M 10 2 L 10 16 L 17 15 L 20 12 L 20 6 L 17 3 z" stroke-linecap="round" />
</g>
		<g transform="matrix(0.63 0 0 0.63 272.5 246.88)"  >
<path style="stroke: none; stroke-width: 1; stroke-dasharray: none; stroke-linecap: butt; stroke-dashoffset: 0; stroke-linejoin: miter; stroke-miterlimit: 4; fill: rgb(255,255,255); fill-rule: nonzero; opacity: 1;" vector-effect="non-scaling-stroke"  transform=" translate(-3.5, -17.5)" d="M 0 0 L 7 0 L 13 3 L 18 9 L 20 15 L 19 24 L 15 31 L 8 35 L -1 35 L -7 32 L -12 26 L -13 23 L -13 13 L -9 5 L -3 1 z M 2 2 L -4 5 L -7 12 L -7 23 L -3 31 L 0 33 L 6 33 L 11 30 L 14 21 L 13 10 L 10 5 L 5 2 z" stroke-linecap="round" />
</g>
		<g transform="matrix(0.63 0 0 0.63 75.31 246.88)"  >
<path style="stroke: none; stroke-width: 1; stroke-dasharray: none; stroke-linecap: butt; stroke-dashoffset: 0; stroke-linejoin: miter; stroke-miterlimit: 4; fill: rgb(255,255,255); fill-rule: nonzero; opacity: 1;" vector-effect="non-scaling-stroke"  transform=" translate(-14, -16.5)" d="M 0 0 L 25 0 L 25 7 L 23 3 L 9 2 L 9 15 L 19 14 L 21 10 L 23 10 L 23 22 L 21 22 L 19 18 L 9 17 L 10 30 L 22 30 L 26 25 L 28 25 L 26 33 L 0 33 L 3 31 L 4 2 z" stroke-linecap="round" />
</g>
		<g transform="matrix(0.63 0 0 0.63 8.44 247.19)"  >
<path style="stroke: none; stroke-width: 1; stroke-dasharray: none; stroke-linecap: butt; stroke-dashoffset: 0; stroke-linejoin: miter; stroke-miterlimit: 4; fill: rgb(255,255,255); fill-rule: nonzero; opacity: 1;" vector-effect="non-scaling-stroke"  transform=" translate(-18, -17)" d="M 0 0 L 15 0 L 11 3 L 11 26 L 12 30 L 21 31 L 26 28 L 27 27 L 28 2 L 24 0 L 36 0 L 32 3 L 31 26 L 28 31 L 23 34 L 12 34 L 6 29 L 5 27 L 4 3 z" stroke-linecap="round" />
</g>
		<g transform="matrix(0.63 0 0 0.63 116.25 246.88)"  >
<path style="stroke: none; stroke-width: 1; stroke-dasharray: none; stroke-linecap: butt; stroke-dashoffset: 0; stroke-linejoin: miter; stroke-miterlimit: 4; fill: rgb(255,255,255); fill-rule: nonzero; opacity: 1;" vector-effect="non-scaling-stroke"  transform=" translate(-3.5, -17.5)" d="M 0 0 L 8 1 L 11 2 L 11 0 L 13 0 L 13 12 L 11 12 L 8 5 L 6 4 L -1 4 L -2 5 L -2 10 L 8 16 L 14 21 L 15 28 L 12 33 L 8 35 L 0 35 L -5 34 L -7 35 L -7 23 L -5 25 L -3 30 L 1 32 L 8 31 L 9 30 L 9 25 L -6 15 L -8 8 L -5 3 z" stroke-linecap="round" />
</g>
		<g transform="matrix(0.63 0 0 0.63 -88.75 246.88)"  >
<path style="stroke: none; stroke-width: 1; stroke-dasharray: none; stroke-linecap: butt; stroke-dashoffset: 0; stroke-linejoin: miter; stroke-miterlimit: 4; fill: rgb(255,255,255); fill-rule: nonzero; opacity: 1;" vector-effect="non-scaling-stroke"  transform=" translate(-14.5, -16.5)" d="M 0 0 L 26 0 L 26 7 L 22 3 L 10 2 L 10 15 L 21 14 L 23 10 L 23 22 L 20 18 L 10 17 L 10 31 L 23 30 L 27 25 L 29 26 L 26 33 L 0 33 L 4 30 L 4 3 z" stroke-linecap="round" />
</g>
		<g transform="matrix(0.63 0 0 0.63 179.06 247.19)"  >
<path style="stroke: none; stroke-width: 1; stroke-dasharray: none; stroke-linecap: butt; stroke-dashoffset: 0; stroke-linejoin: miter; stroke-miterlimit: 4; fill: rgb(255,255,255); fill-rule: nonzero; opacity: 1;" vector-effect="non-scaling-stroke"  transform=" translate(-18, -17)" d="M 0 0 L 15 0 L 11 3 L 11 25 L 14 30 L 21 31 L 27 29 L 28 23 L 28 4 L 27 2 L 24 0 L 36 0 L 32 4 L 31 27 L 26 33 L 24 34 L 13 34 L 8 31 L 5 26 L 5 2 L 0 1 z" stroke-linecap="round" />
</g>
		<g transform="matrix(0.63 0 0 0.63 -209.69 246.88)"  >
<path style="stroke: none; stroke-width: 1; stroke-dasharray: none; stroke-linecap: butt; stroke-dashoffset: 0; stroke-linejoin: miter; stroke-miterlimit: 4; fill: rgb(255,255,255); fill-rule: nonzero; opacity: 1;" vector-effect="non-scaling-stroke"  transform=" translate(-2, -17.5)" d="M 0 0 L 7 0 L 13 1 L 15 0 L 16 4 L 16 12 L 14 11 L 12 5 L 6 3 L -1 4 L -4 5 L -6 11 L -6 25 L -2 30 L 5 32 L 11 30 L 15 26 L 17 27 L 12 33 L 8 35 L -2 35 L -9 31 L -13 24 L -13 12 L -9 5 L -3 1 z" stroke-linecap="round" />
</g>
		<g transform="matrix(0.63 0 0 0.63 -275.94 246.56)"  >
<path style="stroke: none; stroke-width: 1; stroke-dasharray: none; stroke-linecap: butt; stroke-dashoffset: 0; stroke-linejoin: miter; stroke-miterlimit: 4; fill: rgb(255,255,255); fill-rule: nonzero; opacity: 1;" vector-effect="non-scaling-stroke"  transform=" translate(-1, -17)" d="M 0 0 L 2 0 L 14 28 L 16 32 L 19 34 L 6 34 L 8 30 L 6 23 L -6 24 L -9 30 L -9 32 L -6 34 L -17 34 L -13 32 L -10 23 z M -1 9 L -5 18 L -5 21 L 5 21 L 0 9 z" stroke-linecap="round" />
</g>
		<g transform="matrix(0.63 0 0 0.63 -56.56 246.88)"  >
<path style="stroke: none; stroke-width: 1; stroke-dasharray: none; stroke-linecap: butt; stroke-dashoffset: 0; stroke-linejoin: miter; stroke-miterlimit: 4; fill: rgb(255,255,255); fill-rule: nonzero; opacity: 1;" vector-effect="non-scaling-stroke"  transform=" translate(-1, -17.5)" d="M 0 0 L 13 1 L 15 0 L 16 12 L 13 9 L 9 4 L 2 3 L -4 6 L -7 15 L -6 25 L -4 29 L -1 31 L 5 32 L 12 29 L 16 26 L 14 31 L 7 35 L -2 35 L -8 32 L -12 27 L -14 21 L -13 11 L -9 5 L -3 1 z" stroke-linecap="round" />
</g>
		<g transform="matrix(0.63 0 0 0.63 146.56 246.88)"  >
<path style="stroke: none; stroke-width: 1; stroke-dasharray: none; stroke-linecap: butt; stroke-dashoffset: 0; stroke-linejoin: miter; stroke-miterlimit: 4; fill: rgb(255,255,255); fill-rule: nonzero; opacity: 1;" vector-effect="non-scaling-stroke"  transform=" translate(-14, -16.5)" d="M 0 0 L 28 0 L 28 8 L 26 7 L 25 4 L 17 3 L 17 30 L 21 33 L 7 33 L 10 31 L 11 2 L 3 4 L 0 8 z" stroke-linecap="round" />
</g>
		<g transform="matrix(0.63 0 0 0.63 -24.38 246.88)"  >
<path style="stroke: none; stroke-width: 1; stroke-dasharray: none; stroke-linecap: butt; stroke-dashoffset: 0; stroke-linejoin: miter; stroke-miterlimit: 4; fill: rgb(255,255,255); fill-rule: nonzero; opacity: 1;" vector-effect="non-scaling-stroke"  transform=" translate(-13.5, -16.5)" d="M 0 0 L 27 0 L 27 8 L 22 3 L 17 3 L 17 31 L 21 33 L 6 33 L 10 31 L 11 2 L 3 4 L 0 8 z" stroke-linecap="round" />
</g>
		<g transform="matrix(0.63 0 0 0.63 -119.69 246.88)"  >
<path style="stroke: none; stroke-width: 1; stroke-dasharray: none; stroke-linecap: butt; stroke-dashoffset: 0; stroke-linejoin: miter; stroke-miterlimit: 4; fill: rgb(255,255,255); fill-rule: nonzero; opacity: 1;" vector-effect="non-scaling-stroke"  transform=" translate(-14, -16.5)" d="M 0 0 L 27 0 L 28 7 L 26 8 L 25 3 L 17 3 L 17 32 L 21 33 L 7 33 L 10 31 L 11 2 L 3 4 L 0 8 z" stroke-linecap="round" />
</g>
		<g transform="matrix(0.63 0 0 0.63 243.44 246.88)"  >
<path style="stroke: none; stroke-width: 1; stroke-dasharray: none; stroke-linecap: butt; stroke-dashoffset: 0; stroke-linejoin: miter; stroke-miterlimit: 4; fill: rgb(255,255,255); fill-rule: nonzero; opacity: 1;" vector-effect="non-scaling-stroke"  transform=" translate(-7, -16.5)" d="M 0 0 L 14 0 L 11 2 L 10 5 L 10 29 L 11 31 L 14 33 L 0 33 L 3 31 L 4 2 z" stroke-linecap="round" />
</g>
		<g transform="matrix(0.63 0 0 0.63 -146.56 246.88)"  >
<path style="stroke: none; stroke-width: 1; stroke-dasharray: none; stroke-linecap: butt; stroke-dashoffset: 0; stroke-linejoin: miter; stroke-miterlimit: 4; fill: rgb(255,255,255); fill-rule: nonzero; opacity: 1;" vector-effect="non-scaling-stroke"  transform=" translate(-7, -16.5)" d="M 0 0 L 14 0 L 11 2 L 10 5 L 10 29 L 11 31 L 14 33 L 0 33 L 3 31 L 4 2 z" stroke-linecap="round" />
</g>
</g>
</g>
</svg>