<svg version="1.1" xmlns="http://www.w3.org/2000/svg" width="250" height="250" viewBox="565 319 919 825">
    <path transform="translate(963,319)"
          d="m0 0h12l20 3 18 5 20 9 11 7 13 10 11 10 9 11 8 11 11 21 7 21 3 17 1 19v170l2 16 5 16 8 16 11 14 11 10 11 7 15 7 14 4 18 2 8 3 8 7 3 7 1 7-3 10-7 8-8 4h-14l-19-3-17-5-18-8-13-8-13-10-11-10-9-11-6-8-5 5-7 9-10 11-11 9-10 7-16 9-18 7-22 5-9 1h-17l-20-3-17-5-18-8-16-10-11-9-11-10-11-14-9-14-9-19-6-21-2-13-1-14 2-19 5-21 8-19 9-16 11-14 16-16 15-11 21-11 21-7 16-3 19-1 8 3 6 5 4 7 1 4v8l-3 8-5 6-7 4-15 2-16 3-13 5-15 8-13 11-9 10-8 13-5 11-4 13-2 13v10l3 17 5 14 8 15 9 11 9 9 15 10 16 7 18 4h19l18-4 16-7 12-8 10-9 8-9 7-11 7-15 5-19v-188l-3-18-6-16-6-11-10-13-7-7-11-8-17-9-13-4-12-2-15-1-1 1-15 3-16 6-13 8-10 8-7 7-10 14-7 15-4 13-3 22-4 8-7 6-8 3-10-1-8-4-6-7-2-5v-17l3-17 5-16 7-16 8-14 11-14 7-8 8-7 13-10 15-9 17-7 17-5 11-2h9zm-7 2m-2 1m-1 1m-2 1v3l2-3zm-2 3m-1 1m-1 1 1 2zm-1 2 1 2zm-1 2 1 2zm-1 3v12h1v-12zm1 13 1 2zm1 2 1 2zm1 2 1 2zm1 2m1 1 1 3v-3zm2 3m2 1m1 1m1 1m2 1m104 281v6h1v-6zm1 7v5h1v-5zm1 6 1 3zm1 5 1 3zm1 3 1 3zm1 4 1 3zm1 3 1 3zm1 3 1 3zm1 3 1 2zm1 3 1 2zm1 2 1 2zm1 2 1 2zm1 3 1 2zm1 2 1 2zm1 2 1 2zm1 2 1 2zm1 2 1 2zm1 2m1 1 1 2zm1 2 1 2zm1 2m1 1 1 2z"
          fill="#13253B"/>
    <path transform="translate(963,493)"
          d="m0 0h8l8 3 6 5 4 7 1 4v8l-3 8-5 6-7 4-15 2-16 3-13 5-15 8-13 11-9 10-8 13-5 11-4 13-2 13v10l3 17 5 14 8 15 9 11 9 9 15 10 16 7 18 4h19l18-4 16-7 12-8 10-9 8-9 7-11 7-15 5-19 2 2 1 12 2 6 2 10 8 20 8 14-2 5-9 11-10 11-11 9-10 7-16 9-18 7-22 5-9 1h-17l-20-3-17-5-18-8-16-10-11-9-11-10-11-14-9-14-9-19-6-21-2-13-1-14 2-19 5-21 8-19 9-16 11-14 16-16 15-11 21-11 21-7 16-3z"
          fill="#fff"/>
    <path transform="translate(1366,865)"
          d="m0 0h35l17 3 16 5 20 8 12 5 7-1 3-2 5 3-2 6-15 29-5 9-3 2-4-2-3-8-7-6-13-6-17-5-21-3h-15l-17 3-12 5-6 5-2 4v9l5 5 11 3 24 3 37 3 25 5 13 5 10 6 7 6 7 10 5 12 1 4v21l-4 13-7 11-7 7-14 9-14 6-16 4-15 2h-33l-21-3-17-4-18-6-12-5-5 1-2 2-5-1-1-5 18-43 3-1 4 2 3 8 9 6 17 6 18 4 18 2h14l16-2 15-5 6-4 3-5v-10l-4-5-10-4-20-3-46-4-22-4-12-5-9-6-5-5-5-6-5-10-3-11v-19l3-12 6-11 8-9 10-7 14-7 17-5z"
          fill="#13253B"/>
    <path transform="translate(1097,869)"
          d="m0 0h75v7l-6 4-2 3v7l5 12 15 28 14 27 12 22 16 31 12 22 8 14 6 4 6 2v6l-1 1h-78v-7l9-3 1-8-4-11-9-16v-2h-86l-3 9-8 17v9l4 3 6 3-1 6h-71v-7l10-4 8-14 16-32 11-23 32-64 10-21 1-4v-8l-1-3-5-2-2-1zm34 59-26 53v2h55l-2-6-15-30-10-19z"
          fill="#13253B"/>
    <path transform="translate(645,869)"
          d="m0 0h75v7l-5 3h-2l-1 4v7l5 12 12 23 12 22 16 31 12 22 16 31 9 15 6 4 6 2v6l-1 1h-78v-7l9-3 1-8-4-10-9-17v-2h-86l-2 6-9 20v9l6 4 3 1v7h-71v-7l9-4 6-8 14-28 11-23 30-60 11-23 6-13 1-3v-8l-1-3-5-2-2-1zm34 59-13 26-11 23-2 6h55l-2-6-24-47-1-2z"
          fill="#13253B"/>
    <path transform="translate(803,869)"
          d="m0 0h87v7l-7 3-3 4 1 6 8 12 13 18 11 15 7-9 21-30 5-10-2-5-8-4v-7h82l1 1v5l-14 7-9 10-13 18-14 19-26 36-7 10v71l4 4 5 2v7h-68l-1-1v-5l9-5 1-3v-70l-13-18-14-19-26-36-10-13-8-8-8-4-4-1z"
          fill="#14263B"/>
    <path transform="translate(951,320)"
          d="m0 0h6l-2 3-4 2-5 8-1 3v12l5 10 7 5 3 2-1 1-15 3-16 6-13 8-10 8-7 7-10 14-7 15-4 13-3 22-4 8-7 6-8 3-10-1-8-4-6-7-2-5v-17l3-17 5-16 7-16 8-14 11-14 7-8 8-7 13-10 15-9 17-7 17-5z"
          fill="#fff"/>
    <path transform="translate(1350,1110)"
          d="m0 0h21l7 3 5 6 1 4v7l-3 7-6 5-3 1h-22l4-3v-27zm12 2-2 1v28h9l6-4 3-7v-7l-3-6-4-4z" fill="#fff"/>
    <path transform="translate(726,1110)"
          d="m0 0h15l-3 2h-2v13h15l-1-12-4-3h15l-3 2h-2l1 29 4 2h-15l4-3v-12h-13v13l4 2h-15l4-3v-27z" fill="#fff"/>
    <path transform="translate(619,1110)"
          d="m0 0h20l5 3 1 2v8l-5 4h-2l8 11 6 4v1h-9l-10-13v-2h-4l1 13 4 2h-15l4-2v-28zm11 2-1 1v13l7-1 3-3v-7l-4-3z"
          fill="#fff"/>
    <path transform="translate(1077,1110)"
          d="m0 0h19l5 3 2 3v6l-4 4-3 2 9 12 5 2v1h-10l-10-14-3-1 1 13 3 2h-14l4-4v-25l-1-2zm10 2v14l7-1 3-3v-6l-3-3z"
          fill="#fff"/>
    <path transform="translate(1457,1109)"
          d="m0 0h7l6 3 5 6 2 6-1 9-4 7-7 4h-9l-6-3-5-6-1-3v-10l4-8 6-4zm2 2-6 3-3 7v11l4 8 3 2h6l5-3 3-9-1-11-3-5-5-3z"
          fill="#fff"/>
    <path transform="translate(1131,1110)"
          d="m0 0h25v7l-2-4-14-1v13l10-1 2-4h2v12h-2l-2-4-10-1 1 13h12l4-5h2l-2 8h-26l3-2 1-29z" fill="#fff"/>
    <path transform="translate(1020,1110)"
          d="m0 0h15l-4 3v23l1 4 9 1 5-3 1-1 1-25-4-2h12l-4 3-1 23-3 5-5 3h-11l-6-5-1-2-1-24z" fill="#fff"/>
    <path transform="translate(1207,1109)"
          d="m0 0 8 1 3 1v-2h2v12h-2l-3-7-2-1h-7l-1 1v5l10 6 6 5 1 7-3 5-4 2h-8l-5-1-2 1v-12l2 2 2 5 4 2 7-1 1-1v-5l-15-10-2-7 3-5z"
          fill="#fff"/>
    <path transform="translate(868,1110)"
          d="m0 0h26v7l-4-4-12-1v13l11-1 2-4v12l-3-4-10-1v14l13-1 4-5 2 1-3 7h-26l4-3v-27z" fill="#fff"/>
    <path transform="translate(1293,1110)"
          d="m0 0h15l-4 3v22l3 5 7 1 6-2 1-6v-19l-1-2-3-2h12l-4 4-1 23-5 6-2 1h-11l-5-3-3-5v-24l-5-1z" fill="#fff"/>
    <path transform="translate(687,1109)"
          d="m0 0h7l6 1 2-1 1 4v8l-2-1-2-6-6-2-7 1-3 1-2 6v14l4 5 7 2 6-2 4-4 2 1-5 6-4 2h-10l-7-4-4-7v-12l4-7 6-4z"
          fill="#fff"/>
    <path transform="translate(582,1109)"
          d="m0 0h2l12 28 2 4 3 2h-13l2-4-2-7-12 1-3 6v2l3 2h-11l4-2 3-9zm-1 9-4 9v3h10l-5-12z" fill="#fff"/>
    <path transform="translate(933,1109)"
          d="m0 0 13 1 2-1 1 12-3-3-4-5-7-1-6 3-3 9 1 10 2 4 3 2 6 1 7-3 4-3-2 5-7 4h-9l-6-3-4-5-2-6 1-10 4-6 6-4z"
          fill="#fff"/>
    <path transform="translate(1245,1110)" d="m0 0h28v8l-2-1-1-3-8-1v27l4 3h-14l3-2 1-29-8 2-3 4z" fill="#fff"/>
    <path transform="translate(972,1110)" d="m0 0h27v8l-5-5h-5v28l4 2h-15l4-2 1-29-8 2-3 4z" fill="#fff"/>
    <path transform="translate(819,1110)" d="m0 0h27l1 7-2 1-1-5h-8v29l4 1h-14l3-2 1-29-8 2-3 4z" fill="#fff"/>
    <path transform="translate(1407,1110)" d="m0 0h14l-3 2-1 3v24l1 2 3 2h-14l3-2 1-29z" fill="#fff"/>
    <path transform="translate(783,1110)" d="m0 0h14l-3 2-1 3v24l1 2 3 2h-14l3-2 1-29z" fill="#fff"/>
</svg>